<svg id="Capa_1" enable-background="new 0 0 501 501" height="512" viewBox="0 0 501 501" width="512" xmlns="http://www.w3.org/2000/svg"><path d="m475.237 359.982c-40.316 80.576-123.745 135.828-220.047 135.517-135.648-.439-244.476-109.88-244.189-245.528.285-135.066 109.866-244.471 244.999-244.471 64.197 0 122.627 24.691 166.312 65.095 3.575 3.306 4.882 8.432 3.175 12.992-10.012 26.734-15.487 55.684-15.487 85.913 0 62.355 23.295 119.269 61.656 162.515 6.815 7.683 8.176 18.783 3.581 27.967z" fill="#0ed1b2"/><path d="m30.523 154.5h329.477v317.895c-31.569 14.822-66.817 23.105-104 23.105-135.31 0-245-109.69-245-245 0-34.072 6.955-66.52 19.523-96z" fill="#056099"/><path d="m250 90.5v250c0 11.046-8.954 20-20 20h-70c-11.046 0-20-8.954-20-20v-250c0-11.046 8.954-20 20-20h70c11.046 0 20 8.954 20 20z" fill="#f7e6b0"/><path d="m199 70.5h223.209c48.451 44.761 78.791 108.837 78.791 180 0 39.556-9.375 76.923-26.023 110h-275.977c-11.046 0-20-8.954-20-20v-250c0-11.046 8.954-20 20-20z" fill="#fdf7bd"/><path d="m484.842 162.814-110.991 78.993c-17.27 12.292-40.432 12.292-57.702 0l-176.149-125.367v-25.94c0-11.046 8.954-20 20-20h262.209c27.414 25.326 49.03 56.836 62.633 92.314z" fill="#fdf061"/><path d="m179 144.197-39-27.757v-25.94c0-11.046 8.954-20 20-20h39c-11.046 0-20 8.954-20 20z" fill="#f1ca50"/><path d="m380 239.5c0 19.33-15.67 35-35 35s-35-15.67-35-35 15.67-35 35-35 35 15.67 35 35z" fill="#fd5757"/><path d="m365 239.5c0 11.046-8.954 20-20 20s-20-8.954-20-20 8.954-20 20-20 20 8.954 20 20z" fill="#ab2538"/><path d="m250 430.5h-230c-11.046 0-20-8.954-20-20v-116c0-11.046 8.954-20 20-20h230c11.046 0 20 8.954 20 20v116c0 11.046-8.954 20-20 20z" fill="#c92e43"/><path d="m250 430.5h-190c-11.046 0-20-8.954-20-20v-116c0-11.046 8.954-20 20-20h190c11.046 0 20 8.954 20 20v116c0 11.046-8.954 20-20 20z" fill="#fd5757"/><path d="m90 329.5c0 19.33-15.67 35-35 35s-35-15.67-35-35 15.67-35 35-35 35 15.67 35 35z" fill="#c92e43"/><path d="m230 364.5h-110c-5.523 0-10-4.477-10-10 0-5.523 4.477-10 10-10h110c5.523 0 10 4.477 10 10 0 5.523-4.477 10-10 10zm-60 30c0-5.523-4.477-10-10-10h-40c-5.523 0-10 4.477-10 10 0 5.523 4.477 10 10 10h40c5.523 0 10-4.477 10-10zm40 0c0-5.523-4.477-10-10-10-5.523 0-10 4.477-10 10 0 5.523 4.477 10 10 10 5.523 0 10-4.477 10-10zm-155-85c-11.046 0-20 8.954-20 20s8.954 20 20 20 20-8.954 20-20-8.954-20-20-20z" fill="#962437"/></svg>